<svg width="80" height="86" viewBox="0 0 80 86" fill="none" xmlns="http://www.w3.org/2000/svg">
<path d="M78.0859 79.0898V84.9492H10.7031C5.84961 84.9492 1.91406 81.0137 1.91406 76.1601C1.91406 73.7344 2.89844 71.535 4.48828 69.9453C6.07812 68.3555 8.27734 67.3711 10.7031 67.3711H11.6797H19.4922H27.3047H35.1172H74.1797H78.0859V73.2305V79.0898Z" fill="#FEBE76"/>
<path d="M3.05332 78.3086C3.05332 75.8828 4.0377 73.6834 5.62754 72.0937C7.21738 70.5039 9.4166 69.5195 11.8424 69.5195H12.8189H20.6314H28.4439H36.2564H75.3189H78.0859V67.3711H74.1797H35.1172H27.3047H19.4922H11.6797H10.7031C8.27734 67.3711 6.07812 68.3555 4.48828 69.9453C2.89844 71.5351 1.91406 73.7344 1.91406 76.1601C1.91406 78.0803 2.53184 79.8555 3.57695 81.3014C3.23867 80.3672 3.05332 79.3596 3.05332 78.3086Z" fill="#E8A664"/>
<path d="M19.4922 67.3711H11.6797V53.6992H15.5859H58.5547H60.5078H74.1797V67.3711H35.1172H27.3047H19.4922Z" fill="#FFF2D4"/>
<path d="M13.5514 55.6523H17.4576H60.4266H62.3797H74.1797V53.6992H60.5078H58.5547H15.5859H11.6797V67.3711H13.5514V55.6523Z" fill="#F0DCA0"/>
<path d="M58.5547 53.6992H15.5859V34.168H36.2793H43.8945H60.5078C63.2031 34.168 65.6445 35.2617 67.4121 37.0293C69.1799 38.7969 70.2734 41.2383 70.2734 43.9336C70.2734 49.326 65.9004 53.6992 60.5078 53.6992H58.5547Z" fill="#FCD884"/>
<path d="M17.8426 36.5117H38.5359H46.1512H62.7646C64.9393 36.5117 66.948 37.2246 68.5717 38.4281C68.2283 37.9266 67.8404 37.4578 67.4119 37.0293C65.6443 35.2617 63.2029 34.168 60.5076 34.168H43.8943H36.2791H15.5859V53.6992H17.8426V36.5117Z" fill="#EABF6A"/>
<path d="M40.4297 10.6582C41.8398 8.49609 44.3105 7.07227 47.082 7.07227C62.0469 7.07227 52.1289 34.168 43.8947 34.168C42.5644 34.168 41.3264 33.8145 40.2637 33.2832H40.0859H39.9082C38.8457 33.8145 37.6074 34.168 36.2793 34.168C28.043 34.168 18.125 7.07227 33.0898 7.07227C36.1016 7.07227 38.7578 8.75391 40.0859 11.2344C40.1914 11.0371 40.3066 10.8438 40.4297 10.6582Z" fill="#FF7979"/>
<path d="M35.0975 8.58594C36.4438 8.58594 37.718 8.92383 38.8352 9.51719C37.3877 8.01016 35.3381 7.07227 33.0898 7.07227C19.4934 7.07227 26.4371 29.4371 33.998 33.5277C27.3633 27.1148 22.7221 8.58594 35.0975 8.58594Z" fill="#D65B5B"/>
<path d="M42.9297 41.9805H39.0234V45.8867H42.9297V41.9805Z" fill="black"/>
<path d="M37.0703 41.9805H33.1641V45.8867H37.0703V41.9805Z" fill="black"/>
<path d="M31.2109 41.9805H27.3047V45.8867H31.2109V41.9805Z" fill="black"/>
<path d="M25.3516 41.9805H21.4453V45.8867H25.3516V41.9805Z" fill="black"/>
<path d="M78.0859 85.9258H10.7031C5.31836 85.9258 0.9375 81.5449 0.9375 76.1601C0.9375 73.5516 1.95332 71.099 3.79785 69.2549C5.64219 67.4105 8.09473 66.3945 10.7031 66.3945H11.6797C12.2189 66.3945 12.6562 66.8316 12.6562 67.3711C12.6562 67.9105 12.2189 68.3476 11.6797 68.3476H10.7031C8.61621 68.3476 6.65449 69.1601 5.17891 70.6357C3.70332 72.1113 2.89062 74.0732 2.89062 76.1601C2.89062 80.468 6.39531 83.9726 10.7031 83.9726H77.1094V68.3476H74.1797C73.6402 68.3476 73.2031 67.9105 73.2031 67.3711C73.2031 66.8316 73.6402 66.3945 74.1797 66.3945H78.0859C78.6254 66.3945 79.0625 66.8316 79.0625 67.3711V84.9492C79.0625 85.4887 78.6254 85.9258 78.0859 85.9258Z" fill="black"/>
<path d="M60.5078 54.6758C59.9684 54.6758 59.5312 54.2387 59.5312 53.6992C59.5312 53.1598 59.9684 52.7227 60.5078 52.7227C65.3541 52.7227 69.2969 48.7799 69.2969 43.9336C69.2969 41.5871 68.3822 39.3803 66.7215 37.7199C65.0607 36.0592 62.8539 35.1445 60.5078 35.1445H16.5625V53.6992C16.5625 54.2387 16.1252 54.6758 15.5859 54.6758C15.0467 54.6758 14.6094 54.2387 14.6094 53.6992V34.168C14.6094 33.6287 15.0467 33.1914 15.5859 33.1914H60.5078C63.376 33.1914 66.073 34.3092 68.1025 36.3389C70.1322 38.3682 71.25 41.0654 71.25 43.9336C71.25 49.8568 66.4311 54.6758 60.5078 54.6758Z" fill="black"/>
<path d="M74.1797 68.3477H11.6797C11.1404 68.3477 10.7031 67.9105 10.7031 67.3711V53.6992C10.7031 53.1598 11.1404 52.7227 11.6797 52.7227H74.1797C74.7191 52.7227 75.1562 53.1598 75.1562 53.6992V67.3711C75.1562 67.9105 74.7191 68.3477 74.1797 68.3477ZM12.6562 66.3945H73.2031V54.6758H12.6562V66.3945Z" fill="black"/>
<path d="M19.4922 68.3477C18.9529 68.3477 18.5156 67.9105 18.5156 67.3711V59.5586C18.5156 59.0191 18.9529 58.582 19.4922 58.582C20.0314 58.582 20.4688 59.0191 20.4688 59.5586V67.3711C20.4688 67.9105 20.0314 68.3477 19.4922 68.3477Z" fill="black"/>
<path d="M27.3047 68.3477C26.7654 68.3477 26.3281 67.9105 26.3281 67.3711V59.5586C26.3281 59.0191 26.7654 58.582 27.3047 58.582C27.8439 58.582 28.2812 59.0191 28.2812 59.5586V67.3711C28.2812 67.9105 27.8439 68.3477 27.3047 68.3477Z" fill="black"/>
<path d="M35.1172 68.3477C34.5779 68.3477 34.1406 67.9105 34.1406 67.3711V59.5586C34.1406 59.0191 34.5779 58.582 35.1172 58.582C35.6564 58.582 36.0938 59.0191 36.0938 59.5586V67.3711C36.0938 67.9105 35.6564 68.3477 35.1172 68.3477Z" fill="black"/>
<path d="M78.0859 80.0664H15.5859C15.0467 80.0664 14.6094 79.6293 14.6094 79.0898C14.6094 78.5504 15.0467 78.1133 15.5859 78.1133H78.0859C78.6254 78.1133 79.0625 78.5504 79.0625 79.0898C79.0625 79.6293 78.6254 80.0664 78.0859 80.0664Z" fill="black"/>
<path d="M78.0859 74.207H15.5859C15.0467 74.207 14.6094 73.7699 14.6094 73.2305C14.6094 72.691 15.0467 72.2539 15.5859 72.2539H78.0859C78.6254 72.2539 79.0625 72.691 79.0625 73.2305C79.0625 73.7699 78.6254 74.207 78.0859 74.207Z" fill="black"/>
<path d="M58.5547 54.6758C58.0152 54.6758 57.5781 54.2387 57.5781 53.6992V40.0273C57.5781 39.4881 58.0152 39.0508 58.5547 39.0508C59.0941 39.0508 59.5312 39.4881 59.5312 40.0273V53.6992C59.5312 54.2387 59.0941 54.6758 58.5547 54.6758Z" fill="black"/>
<path d="M43.8945 35.1445C42.6168 35.1445 41.3061 34.8469 40.0859 34.2814C38.8658 34.8469 37.5559 35.1445 36.2793 35.1445C33.517 35.1445 30.5148 32.684 28.0426 28.3937C25.7457 24.4078 24.3744 19.6605 24.3744 15.6947C24.3744 12.8937 25.0367 10.6357 26.3426 8.9834C27.8568 7.06738 30.127 6.0959 33.0898 6.0959C35.8574 6.0959 38.4207 7.35547 40.0875 9.4627C41.7631 7.34258 44.3232 6.0959 47.082 6.0959C50.0449 6.0959 52.315 7.06738 53.8295 8.98359C55.1355 10.6361 55.7977 12.8941 55.7977 15.6951C55.7977 19.6609 54.4264 24.408 52.1301 28.3939C49.6578 32.684 46.6562 35.1445 43.8945 35.1445ZM39.9082 32.3066H40.2637C40.4152 32.3066 40.5648 32.342 40.7004 32.4098C41.723 32.9211 42.8277 33.1914 43.8945 33.1914C45.8787 33.1914 48.3857 30.9795 50.4375 27.4186C52.5391 23.7715 53.8443 19.2791 53.8443 15.6949C53.8443 13.3773 53.3094 11.4754 52.2969 10.1943C51.1717 8.77051 49.4172 8.04883 47.0818 8.04883C44.7121 8.04883 42.5311 9.22383 41.2477 11.1918C41.1379 11.357 41.0383 11.5242 40.9469 11.6949C40.7771 12.0125 40.4463 12.2109 40.0859 12.2109C39.7258 12.2109 39.3947 12.0129 39.2248 11.6953C38.0203 9.4459 35.6695 8.04883 33.0896 8.04883C30.7543 8.04883 28.9998 8.7707 27.8746 10.1943C26.8623 11.4752 26.3271 13.3771 26.3271 15.6947C26.3271 23.3803 31.9076 33.1914 36.2791 33.1914C37.3449 33.1914 38.4486 32.9211 39.4711 32.4098C39.607 32.342 39.7564 32.3066 39.9082 32.3066Z" fill="black"/>
<path d="M40.4387 11.6799C39.9988 11.6799 39.5996 11.3809 39.4906 10.9346C39.484 10.9086 39.4783 10.8834 39.4732 10.8582C37.51 2.71172 41.184 0.319531 41.3416 0.22168L42.3727 1.88027L42.3902 1.86895C42.3637 1.88711 39.7627 3.75879 41.3785 10.4283C41.3822 10.4436 41.3855 10.4588 41.3885 10.474C41.5146 10.9973 41.1938 11.5242 40.6705 11.6518C40.5932 11.6709 40.5152 11.6799 40.4387 11.6799Z" fill="black"/>
<path d="M43.0711 29.2697C42.7631 29.2697 42.4598 29.1242 42.2697 28.8523C41.9607 28.4102 42.0689 27.8014 42.5109 27.4926C45.1135 25.674 46.0217 22.226 46.0305 22.1914C46.1644 21.6688 46.6971 21.3539 47.2187 21.4877C47.7414 21.6217 48.0564 22.1535 47.9227 22.676C47.8791 22.8459 46.8195 26.8648 43.6297 29.0936C43.4592 29.2125 43.2643 29.2697 43.0711 29.2697Z" fill="black"/>
</svg>
